# xmcd
#
# Track frame offsets:
#  150
#  12969
#  25788
#  42451
#  65812
#  82790
#  101533
#  114306
#  127402
#  150348
#  163094
#  179224
#
# Disc length: 2608 seconds
#
# Revision: 0
# Processed by: cddbd v1.5.2PL0 Copyright (c) Steve Scherf et al.
# Submitted via: Collectorz.com_Music_Collector 6.9
#
DISCID=9c0a2e0c
DTITLE=Laurence Juber - I've Got The World On 6 Strings
DYEAR=2006
DGENRE=Guitar
TTITLE0=I've Got The World On A String
TTITLE1=Get Happy
TTITLE2=If I Only Had A Brain
TTITLE3=Stormy Weather
TTITLE4=Ac-cen-tu-ate The Positive
TTITLE5=Over The Rainbow
TTITLE6=That Old Black Magic
TTITLE7=It's Only A Paper Moon
TTITLE8=Anyplace I Hang My Hat Is Home
TTITLE9=Between The Devil And The Deep Blue Sea
TTITLE10=The Man That Got Away
TTITLE11=Come Rain Or Come Shine
EXTD=
EXTT0=
EXTT1=
EXTT2=
EXTT3=
EXTT4=
EXTT5=
EXTT6=
EXTT7=
EXTT8=
EXTT9=
EXTT10=
EXTT11=
PLAYORDER=
